<svg width="1775" height="390" viewBox="0 0 1775 390" fill="none" xmlns="http://www.w3.org/2000/svg">
<path fill-rule="evenodd" clip-rule="evenodd" d="M153.866 3.38381C161.683 -1.12998 171.315 -1.12784 179.13 3.38967L320.637 85.1914C328.442 89.7037 333.25 98.0358 333.25 107.052V282.444C333.25 291.464 328.438 299.8 320.627 304.311L179.384 385.87C171.567 390.384 161.935 390.382 154.12 385.864L12.6133 304.063C4.80777 299.55 0.000163577 291.218 0 282.202L0 106.81C1.01644e-05 97.7895 4.81187 89.4542 12.623 84.9434L153.866 3.38381ZM23 117.676C22.0001 117.099 20.7502 117.82 20.75 118.975L20.75 275.468C20.7502 280.826 23.6089 285.777 28.249 288.457L154 361.077C155 361.654 156.25 360.933 156.25 359.778V294.377L86.4971 254.094C78.7637 249.628 74 241.375 74 232.444V147.127L23 117.676ZM312.25 118.975C312.25 117.82 311 117.099 310 117.676L259 147.127V232.444C259 241.375 254.236 249.628 246.503 254.094L176.75 294.377V359.778C176.75 360.933 178 361.654 179 361.077L304.751 288.457C309.391 285.777 312.25 280.826 312.25 275.468V118.975ZM93.75 225.636C93.75 230.984 96.5981 235.928 101.225 238.611L156.25 270.526L156.25 194.526L93.75 158.526V225.636ZM176.75 194.526L176.75 270.526L231.775 238.611C236.402 235.928 239.25 230.984 239.25 225.636V158.526L176.75 194.526ZM174.255 105.451C169.611 102.775 163.892 102.78 159.253 105.464L101.5 138.877L167 176.627L232.25 138.877L174.255 105.451ZM174.374 24.3301C169.734 21.6517 164.016 21.6517 159.376 24.3301L33.124 97.2031C32.1244 97.7804 32.1245 99.2232 33.124 99.8008L80.625 127.252L154.122 84.9483C161.859 80.4948 171.385 80.5043 179.112 84.9746L252.625 127.502L300.624 99.8008C301.624 99.2235 301.624 97.7795 300.624 97.2022L174.374 24.3301Z" fill="white"/>
<path d="M450.4 288.127V111.727H479.923V185.962H563.468V111.727H592.868V288.127H563.468V213.647H479.923V288.127H450.4ZM642.157 346.927L667.637 276.979L668.127 297.559L610.429 155.827H641.177L682.092 260.687H674.252L714.064 155.827H743.587L669.842 346.927H642.157ZM822.984 291.802C810.08 291.802 799.26 288.739 790.521 282.614C781.783 276.489 775.209 268.159 770.799 257.624C766.389 247.008 764.184 235.125 764.184 221.977C764.184 208.665 766.389 196.742 770.799 186.207C775.209 175.672 781.66 167.383 790.154 161.339C798.729 155.214 809.305 152.152 821.881 152.152C834.376 152.152 845.197 155.214 854.344 161.339C863.572 167.383 870.718 175.672 875.781 186.207C880.845 196.66 883.376 208.584 883.376 221.977C883.376 235.207 880.885 247.089 875.904 257.624C870.922 268.159 863.899 276.489 854.834 282.614C845.769 288.739 835.152 291.802 822.984 291.802ZM759.161 346.927V155.827H785.254V248.682H788.929V346.927H759.161ZM818.451 265.342C826.128 265.342 832.457 263.423 837.439 259.584C842.42 255.746 846.095 250.56 848.464 244.027C850.914 237.412 852.139 230.062 852.139 221.977C852.139 213.974 850.914 206.705 848.464 200.172C846.014 193.557 842.216 188.33 837.071 184.492C831.926 180.572 825.393 178.612 817.471 178.612C809.958 178.612 803.833 180.449 799.096 184.124C794.36 187.718 790.848 192.781 788.561 199.314C786.356 205.766 785.254 213.32 785.254 221.977C785.254 230.552 786.356 238.106 788.561 244.639C790.848 251.173 794.4 256.277 799.219 259.952C804.119 263.545 810.53 265.342 818.451 265.342ZM968.075 291.802C954.682 291.802 942.922 288.903 932.795 283.104C922.669 277.306 914.747 269.262 909.03 258.972C903.395 248.682 900.578 236.84 900.578 223.447C900.578 208.992 903.355 196.456 908.908 185.839C914.461 175.141 922.179 166.852 932.06 160.972C941.942 155.092 953.375 152.152 966.36 152.152C980.08 152.152 991.718 155.378 1001.27 161.829C1010.91 168.199 1018.06 177.224 1022.71 188.902C1027.37 200.58 1029.12 214.341 1027.98 230.184H998.7V219.404C998.619 205.031 996.087 194.537 991.105 187.922C986.124 181.307 978.284 177.999 967.585 177.999C955.499 177.999 946.515 181.756 940.635 189.269C934.755 196.701 931.815 207.604 931.815 221.977C931.815 235.37 934.755 245.742 940.635 253.092C946.515 260.442 955.09 264.117 966.36 264.117C973.629 264.117 979.876 262.524 985.103 259.339C990.411 256.073 994.495 251.377 997.353 245.252L1026.51 254.072C1021.44 265.995 1013.6 275.264 1002.99 281.879C992.453 288.494 980.815 291.802 968.075 291.802ZM922.505 230.184V207.889H1013.52V230.184H922.505ZM1052.86 288.127V155.827H1078.95V188.044L1075.77 183.879C1077.4 179.469 1079.57 175.468 1082.26 171.874C1085.04 168.199 1088.34 165.178 1092.18 162.809C1095.45 160.604 1099.04 158.889 1102.96 157.664C1106.96 156.358 1111.05 155.582 1115.21 155.337C1119.38 155.01 1123.42 155.174 1127.34 155.827V183.389C1123.42 182.246 1118.89 181.879 1113.74 182.287C1108.68 182.695 1104.11 184.124 1100.02 186.574C1095.94 188.779 1092.59 191.597 1089.98 195.027C1087.45 198.457 1085.57 202.377 1084.34 206.787C1083.12 211.115 1082.51 215.811 1082.51 220.874V288.127H1052.86ZM1203.33 291.802C1189.69 291.802 1178.05 288.78 1168.41 282.737C1158.78 276.612 1151.39 268.282 1146.24 257.747C1141.18 247.212 1138.61 235.289 1138.52 221.977C1138.61 208.42 1141.26 196.415 1146.49 185.962C1151.8 175.427 1159.31 167.179 1169.03 161.217C1178.75 155.174 1190.3 152.152 1203.69 152.152C1218.72 152.152 1231.42 155.949 1241.79 163.544C1252.25 171.058 1259.06 181.348 1262.25 194.414L1232.85 202.377C1230.56 195.272 1226.77 189.759 1221.46 185.839C1216.15 181.838 1210.11 179.837 1203.33 179.837C1195.65 179.837 1189.32 181.674 1184.34 185.349C1179.36 188.943 1175.68 193.924 1173.31 200.294C1170.95 206.664 1169.76 213.892 1169.76 221.977C1169.76 234.554 1172.58 244.721 1178.21 252.479C1183.85 260.238 1192.22 264.117 1203.33 264.117C1211.17 264.117 1217.33 262.32 1221.82 258.727C1226.4 255.134 1229.83 249.948 1232.11 243.169L1262.25 249.907C1258.17 263.382 1251.02 273.754 1240.81 281.022C1230.6 288.209 1218.11 291.802 1203.33 291.802ZM1333.96 291.924C1324.16 291.924 1316.07 290.291 1309.7 287.024C1303.33 283.758 1298.27 279.593 1294.51 274.529C1290.76 269.466 1287.98 264.076 1286.18 258.359C1284.39 252.643 1283.2 247.253 1282.63 242.189C1282.14 237.044 1281.9 232.879 1281.9 229.694V155.827H1311.79V219.527C1311.79 223.61 1312.07 228.224 1312.64 233.369C1313.22 238.433 1314.52 243.333 1316.56 248.069C1318.69 252.724 1321.79 256.563 1325.87 259.584C1330.04 262.606 1335.63 264.117 1342.66 264.117C1346.41 264.117 1350.13 263.504 1353.8 262.279C1357.48 261.054 1360.79 258.972 1363.73 256.032C1366.75 253.01 1369.16 248.886 1370.95 243.659C1372.75 238.433 1373.65 231.818 1373.65 223.814L1391.17 231.287C1391.17 242.557 1388.96 252.765 1384.55 261.912C1380.22 271.059 1373.81 278.368 1365.32 283.839C1356.83 289.229 1346.37 291.924 1333.96 291.924ZM1377.2 288.127V247.089H1373.65V155.827H1403.29V288.127H1377.2ZM1498.84 291.802C1485.94 291.802 1475.12 288.739 1466.38 282.614C1457.64 276.489 1451.06 268.159 1446.65 257.624C1442.24 247.008 1440.04 235.125 1440.04 221.977C1440.04 208.665 1442.24 196.742 1446.65 186.207C1451.06 175.672 1457.52 167.383 1466.01 161.339C1474.58 155.214 1485.16 152.152 1497.74 152.152C1510.23 152.152 1521.05 155.214 1530.2 161.339C1539.43 167.383 1546.57 175.672 1551.64 186.207C1556.7 196.66 1559.23 208.584 1559.23 221.977C1559.23 235.207 1556.74 247.089 1551.76 257.624C1546.78 268.159 1539.75 276.489 1530.69 282.614C1521.62 288.739 1511.01 291.802 1498.84 291.802ZM1435.02 288.127V111.727H1464.78V195.272H1461.11V288.127H1435.02ZM1494.31 265.342C1501.98 265.342 1508.31 263.423 1513.29 259.584C1518.28 255.746 1521.95 250.56 1524.32 244.027C1526.77 237.412 1527.99 230.062 1527.99 221.977C1527.99 213.974 1526.77 206.705 1524.32 200.172C1521.87 193.557 1518.07 188.33 1512.93 184.492C1507.78 180.572 1501.25 178.612 1493.33 178.612C1485.81 178.612 1479.69 180.449 1474.95 184.124C1470.22 187.718 1466.7 192.781 1464.42 199.314C1462.21 205.766 1461.11 213.32 1461.11 221.977C1461.11 230.552 1462.21 238.106 1464.42 244.639C1466.7 251.173 1470.26 256.277 1475.07 259.952C1479.97 263.545 1486.39 265.342 1494.31 265.342ZM1586.23 135.737V108.664H1615.76V135.737H1586.23ZM1586.23 288.127V155.827H1615.76V288.127H1586.23ZM1707.45 291.802C1693.81 291.802 1682.18 288.78 1672.54 282.737C1662.9 276.612 1655.51 268.282 1650.37 257.747C1645.3 247.212 1642.73 235.289 1642.65 221.977C1642.73 208.42 1645.39 196.415 1650.61 185.962C1655.92 175.427 1663.43 167.179 1673.15 161.217C1682.87 155.174 1694.43 152.152 1707.82 152.152C1722.85 152.152 1735.55 155.949 1745.92 163.544C1756.37 171.058 1763.19 181.348 1766.38 194.414L1736.98 202.377C1734.69 195.272 1730.89 189.759 1725.58 185.839C1720.27 181.838 1714.23 179.837 1707.45 179.837C1699.78 179.837 1693.45 181.674 1688.47 185.349C1683.48 188.943 1679.81 193.924 1677.44 200.294C1675.07 206.664 1673.89 213.892 1673.89 221.977C1673.89 234.554 1676.71 244.721 1682.34 252.479C1687.98 260.238 1696.35 264.117 1707.45 264.117C1715.29 264.117 1721.46 262.32 1725.95 258.727C1730.52 255.134 1733.95 249.948 1736.24 243.169L1766.38 249.907C1762.29 263.382 1755.15 273.754 1744.94 281.022C1734.73 288.209 1722.23 291.802 1707.45 291.802Z" fill="white"/>
</svg>
